<svg width="22" height="20" viewBox="0 0 22 20" fill="none" xmlns="http://www.w3.org/2000/svg">
<path d="M21.5447 9.83614L11.5489 0.21903C11.4769 0.149598 11.3914 0.0945134 11.2973 0.0569295C11.2032 0.0193456 11.1023 0 11.0005 0C10.8986 0 10.7977 0.0193456 10.7036 0.0569295C10.6095 0.0945134 10.524 0.149598 10.452 0.21903L0.456229 9.83614C0.165019 10.1165 0 10.4974 0 10.8946C0 11.7194 0.696477 12.39 1.55312 12.39H2.60633V19.2523C2.60633 19.6659 2.95335 20 3.38289 20H9.44734V14.7662H12.1653V20H18.618C19.0476 20 19.3946 19.6659 19.3946 19.2523V12.39H20.4478C20.8603 12.39 21.2559 12.2334 21.5471 11.9507C22.1514 11.3666 22.1514 10.4203 21.5447 9.83614Z" fill="#3E3F41"/>
</svg>
