<svg width="45" height="45" viewBox="0 0 45 45" fill="none" xmlns="http://www.w3.org/2000/svg">
<path d="M22.5 16.6422C19.2744 16.6422 16.6421 19.2745 16.6421 22.5001C16.6421 25.7257 19.2744 28.358 22.5 28.358C25.7256 28.358 28.3579 25.7257 28.3579 22.5001C28.3579 19.2745 25.7256 16.6422 22.5 16.6422ZM40.0693 22.5001C40.0693 20.0743 40.0913 17.6705 39.9551 15.2491C39.8188 12.4366 39.1772 9.94052 37.1206 7.88388C35.0596 5.82284 32.5679 5.18563 29.7554 5.0494C27.3296 4.91317 24.9258 4.93515 22.5044 4.93515C20.0786 4.93515 17.6748 4.91317 15.2534 5.0494C12.4409 5.18563 9.94482 5.82723 7.88818 7.88388C5.82714 9.94491 5.18994 12.4366 5.05371 15.2491C4.91748 17.6749 4.93945 20.0787 4.93945 22.5001C4.93945 24.9215 4.91748 27.3297 5.05371 29.7511C5.18994 32.5636 5.83154 35.0597 7.88818 37.1163C9.94921 39.1773 12.4409 39.8145 15.2534 39.9508C17.6792 40.087 20.083 40.065 22.5044 40.065C24.9302 40.065 27.334 40.087 29.7554 39.9508C32.5679 39.8145 35.064 39.1729 37.1206 37.1163C39.1816 35.0553 39.8188 32.5636 39.9551 29.7511C40.0957 27.3297 40.0693 24.9259 40.0693 22.5001V22.5001ZM22.5 31.5133C17.5122 31.5133 13.4868 27.4879 13.4868 22.5001C13.4868 17.5123 17.5122 13.4869 22.5 13.4869C27.4878 13.4869 31.5132 17.5123 31.5132 22.5001C31.5132 27.4879 27.4878 31.5133 22.5 31.5133ZM31.8823 15.2227C30.7178 15.2227 29.7773 14.2823 29.7773 13.1178C29.7773 11.9532 30.7178 11.0128 31.8823 11.0128C33.0469 11.0128 33.9873 11.9532 33.9873 13.1178C33.9876 13.3943 33.9334 13.6682 33.8278 13.9237C33.7221 14.1793 33.5671 14.4114 33.3715 14.607C33.176 14.8025 32.9438 14.9576 32.6883 15.0632C32.4327 15.1689 32.1588 15.2231 31.8823 15.2227V15.2227Z" fill="#F3F3F3"/>
</svg>
