<svg width="35" height="35" viewBox="0 0 35 35" fill="none" xmlns="http://www.w3.org/2000/svg">
<path d="M20.3052 17.2077L16.3747 15.3737C16.0317 15.2145 15.75 15.393 15.75 15.7727V19.2272C15.75 19.607 16.0317 19.7855 16.3747 19.6262L20.3035 17.7922C20.6482 17.6312 20.6482 17.3687 20.3052 17.2077ZM17.5 0.699951C8.2215 0.699951 0.699997 8.22145 0.699997 17.5C0.699997 26.7785 8.2215 34.3 17.5 34.3C26.7785 34.3 34.3 26.7785 34.3 17.5C34.3 8.22145 26.7785 0.699951 17.5 0.699951ZM17.5 24.3249C8.9005 24.3249 8.75 23.5497 8.75 17.5C8.75 11.4502 8.9005 10.675 17.5 10.675C26.0995 10.675 26.25 11.4502 26.25 17.5C26.25 23.5497 26.0995 24.3249 17.5 24.3249Z" fill="#F8F8F8"/>
</svg>
