<svg width="76" height="67" viewBox="0 0 76 67" fill="none" xmlns="http://www.w3.org/2000/svg">
<g clip-path="url(#clip0_9_8)">
<path d="M69.1682 38.0744V34.98C69.1682 32.2294 68.2866 29.97 66.5235 28.2018C64.7604 26.4336 62.5076 25.5495 59.765 25.5495H40.9586V19.2133C42.7217 19.2133 44.2155 18.5993 45.4398 17.3714C46.6642 16.1434 47.2764 14.6453 47.2764 12.8771V6.68828C47.2764 4.92005 46.6642 3.42196 45.4398 2.19402C44.2155 0.966082 42.7217 0.352112 40.9586 0.352112H34.7878C33.0247 0.352112 31.531 0.966082 30.3066 2.19402C29.0823 3.42196 28.4701 4.92005 28.4701 6.68828V12.8771C28.4701 14.6453 29.0823 16.1434 30.3066 17.3714C31.531 18.5993 33.0247 19.2133 34.7878 19.2133V25.5495H15.9815C13.2389 25.5495 10.986 26.4336 9.22295 28.2018C7.45986 29.97 6.57831 32.2294 6.57831 34.98V38.0744C4.81522 38.0744 3.32149 38.6884 2.09712 39.9164C0.872745 41.1443 0.260559 42.6424 0.260559 44.4106V50.5994C0.260559 52.3677 0.872745 53.8658 2.09712 55.0937C3.32149 56.3216 4.81522 56.9356 6.57831 56.9356H12.7491C14.5122 56.9356 16.006 56.3216 17.2303 55.0937C18.4547 53.8658 19.0669 52.3677 19.0669 50.5994V44.4106C19.0669 42.6424 18.4547 41.1443 17.2303 39.9164C16.006 38.6884 14.5122 38.0744 12.7491 38.0744V34.98C12.7491 32.8189 13.8266 31.7383 15.9815 31.7383H34.7878V38.0744C33.0247 38.0744 31.531 38.6884 30.3066 39.9164C29.0823 41.1443 28.4701 42.6424 28.4701 44.4106V50.5994C28.4701 52.3677 29.0823 53.8658 30.3066 55.0937C31.531 56.3216 33.0247 56.9356 34.7878 56.9356H40.9586C42.7217 56.9356 44.2155 56.3216 45.4398 55.0937C46.6642 53.8658 47.2764 52.3677 47.2764 50.5994V44.4106C47.2764 42.6424 46.6642 41.1443 45.4398 39.9164C44.2155 38.6884 42.7217 38.0744 40.9586 38.0744V31.7383H59.765C61.9199 31.7383 62.9973 32.8189 62.9973 34.98V38.0744C61.2342 38.0744 59.7405 38.6884 58.5161 39.9164C57.2918 41.1443 56.6796 42.6424 56.6796 44.4106V50.5994C56.6796 52.3677 57.2918 53.8658 58.5161 55.0937C59.7405 56.3216 61.2342 56.9356 62.9973 56.9356H69.1682C70.9312 56.9356 72.425 56.3216 73.6494 55.0937C74.8737 53.8658 75.4859 52.3677 75.4859 50.5994V44.4106C75.4859 42.6424 74.8737 41.1443 73.6494 39.9164C72.425 38.6884 70.9312 38.0744 69.1682 38.0744ZM34.7878 6.68828H40.9586V12.8771H34.7878V6.68828ZM12.7491 50.5994H6.57831V44.4106H12.7491V50.5994ZM40.9586 50.5994H34.7878V44.4106H40.9586V50.5994ZM62.9973 50.5994V44.4106H69.1682V50.5994H62.9973Z" fill="#3E3F41"/>
</g>
<defs>
<clipPath id="clip0_9_8">
<rect width="75.2253" height="66.0141" fill="white" transform="translate(0.260559 0.352112)"/>
</clipPath>
</defs>
</svg>
