<svg width="1440" height="90" viewBox="0 0 1440 90" fill="none" xmlns="http://www.w3.org/2000/svg">
<path fill-rule="evenodd" clip-rule="evenodd" d="M0 12.1519L24 14.1772C48 16.2025 96 20.2532 144 32.4051C192 44.557 240 64.8102 288 76.9621C336 89.114 384 93.1647 432 85.0634C480 76.9621 528 56.7089 576 54.6836C624 52.6583 672 68.8608 720 64.8102C768 60.7596 816 36.4557 864 24.3038C912 12.1519 960 12.1519 1008 22.2785C1056 32.4051 1104 52.6583 1152 68.8608C1200 85.0634 1248 97.2153 1296 85.0634C1344 72.9115 1392 36.4557 1416 18.2279L1440 0V0H1416C1392 0 1344 0 1296 0C1248 0 1200 0 1152 0C1104 0 1056 0 1008 0C960 0 912 0 864 0C816 0 768 0 720 0C672 0 624 0 576 0C528 0 480 0 432 0C384 0 336 0 288 0C240 0 192 0 144 0C96 0 48 0 24 0H0V12.1519Z" fill="#3E3F41"/>
</svg>
