<svg width="30" height="34" viewBox="0 0 30 34" fill="none" xmlns="http://www.w3.org/2000/svg">
<path d="M29.9913 13.9393C27.0432 13.9463 24.1674 13.0346 21.7701 11.3329V23.201C21.7693 25.3991 21.0918 27.5446 19.8282 29.3506C18.5646 31.1565 16.7751 32.5369 14.6991 33.3071C12.623 34.0773 10.3593 34.2006 8.21068 33.6605C6.06204 33.1205 4.13088 31.9428 2.67541 30.2849C1.21994 28.6271 0.309538 26.5681 0.0659412 24.3833C-0.177656 22.1985 0.257162 19.9921 1.31225 18.0589C2.36735 16.1258 3.99242 14.5582 5.97018 13.5657C7.94794 12.5732 10.1841 12.2031 12.3797 12.505V18.4742C11.375 18.1608 10.2961 18.1703 9.29715 18.5012C8.29819 18.8321 7.4302 19.4676 6.81716 20.3169C6.20412 21.1662 5.87737 22.1859 5.88358 23.2303C5.88978 24.2748 6.22862 25.2905 6.85171 26.1326C7.47479 26.9747 8.35026 27.6 9.35309 27.9192C10.3559 28.2385 11.4348 28.2353 12.4357 27.9102C13.4367 27.5851 14.3084 26.9547 14.9264 26.1089C15.5445 25.2632 15.8773 24.2455 15.8772 23.201V0H21.7701C21.766 0.493491 21.8077 0.98631 21.8946 1.47223C22.0994 2.55696 22.5252 3.58886 23.1459 4.50482C23.7666 5.42078 24.5693 6.20154 25.5047 6.79934C26.8355 7.67198 28.3958 8.13709 29.9913 8.13676V13.9393Z" fill="#F8F8F8"/>
</svg>
