<svg width="1440" height="118" viewBox="0 0 1440 118" fill="none" xmlns="http://www.w3.org/2000/svg">
<path fill-rule="evenodd" clip-rule="evenodd" d="M1440 102.067L1416 99.4121C1392 96.7567 1344 91.4458 1296 75.5133C1248 59.5808 1200 33.0266 1152 17.0941C1104 1.16162 1056 -4.14922 1008 6.47246C960 17.0941 912 43.6483 864 46.3037C816 48.9591 768 27.7158 720 33.0266C672 38.3375 624 70.2025 576 86.135C528 102.067 480 102.067 432 88.7904C384 75.5133 336 48.9591 288 27.7158C240 6.47246 192 -9.46005 144 6.47246C96 22.405 48 70.2025 24 94.1012L0 118H24C48 118 96 118 144 118C192 118 240 118 288 118C336 118 384 118 432 118C480 118 528 118 576 118C624 118 672 118 720 118C768 118 816 118 864 118C912 118 960 118 1008 118C1056 118 1104 118 1152 118C1200 118 1248 118 1296 118C1344 118 1392 118 1416 118H1440V102.067Z" fill="#3E3F41"/>
</svg>
