<svg width="1440" height="95" viewBox="0 0 1440 95" fill="none" xmlns="http://www.w3.org/2000/svg">
<path fill-rule="evenodd" clip-rule="evenodd" d="M0 12.827L24 14.9649C48 17.1027 96 21.3784 144 34.2054C192 47.0324 240 68.4108 288 81.2378C336 94.0648 384 98.3405 432 89.7891C480 81.2378 528 59.8594 576 57.7216C624 55.5837 672 72.6864 720 68.4108C768 64.1351 816 38.4811 864 25.654C912 12.827 960 12.827 1008 23.5162C1056 34.2054 1104 55.5837 1152 72.6864C1200 89.7891 1248 102.616 1296 89.7891C1344 76.9621 1392 38.4811 1416 19.2405L1440 0H1416C1392 0 1344 0 1296 0C1248 0 1200 0 1152 0C1104 0 1056 0 1008 0C960 0 912 0 864 0C816 0 768 0 720 0C672 0 624 0 576 0C528 0 480 0 432 0C384 0 336 0 288 0C240 0 192 0 144 0C96 0 48 0 24 0H0V12.827Z" fill="#3E3F41"/>
</svg>
